<?xml version="1.0" encoding="utf-8"?>
<!-- Generator: Adobe Illustrator 15.1.0, SVG Export Plug-In . SVG Version: 6.00 Build 0)  -->
<!DOCTYPE svg PUBLIC "-//W3C//DTD SVG 1.1//EN" "http://www.w3.org/Graphics/SVG/1.1/DTD/svg11.dtd">
<svg version="1.1" id="Camada_1" xmlns="http://www.w3.org/2000/svg" xmlns:xlink="http://www.w3.org/1999/xlink" x="0px" y="0px"
	 width="612px" height="792px" viewBox="0 0 612 792" enable-background="new 0 0 612 792" xml:space="preserve">
<g id="XMLID_2_">
	<g>
		<path d="M383,275c14.8,10.2,25.63,24.37,36,39c-17.04,12.3-26.67,32-53,35c17.84,19.05,21.23,76.9-3,95c2.4,6.6,9.55,8.45,12,15
			c3.67,0,3.83-3.5,6-5c-1.7-1.97-4.65-2.68-8-3c8.58-8.09,18.96-19.7,27-25c0.19,14.86-1.02,28.31-3,41c-3.5,0.17-3.15-3.52-5-5
			c-3.16,1.18-3.48,5.19-6,7c6.46,9.88,15.32,17.35,23,26c-2.7,6.3-8.74,9.26-13,14c-8.11-7.22-14.77-15.9-22-24
			c-14.85,22.15-53.27,20.73-69,42c-4.74-16.35-25.73-14.84-42-23c-10.91-5.47-16.43-12.85-25-19c-7.01,7.32-14.15,14.51-20,23
			c-5.31-3.36-9.59-7.74-14-12c6.21-9.79,14.37-17.63,22-26c-0.23-3.77-3.77-4.23-4-8c-3.36,0.31-3.99,3.34-5,6
			c-4.76-10.58-4.92-25.74-5-41c4.85-0.83,12.16,10.88,18,16c3.29,2.89,8.08,3.84,9,8c-3.98-0.65-4.02,2.65-8,2
			c0.31,2.36,3.47,1.86,3,5c6.66-2.34,8.65-9.35,14-13c-20.33-20.03-23.05-74.67-1-95c-25.26-4.07-35.74-22.93-53-35
			c9.18-16.15,20.94-29.72,36-40c13.73,17.27,35,27,38,55c7.76-0.35,16.34-8.25,28-8c1.77-1.89,0.73-6.6,1-10
			c-5.43-1.9-12.69-1.97-19-3c0-4.33,0-8.67,0-13c3.3-1.37,8-1.34,12-2c-18.86-33.62,49.12-40.26,32-1c2.15,2.85,8.66,1.34,12,3
			c0,4.33,0,8.67,0,13c-6.41,0.59-12.22,1.78-19,2c0,3.33,0,6.67,0,10c10.42,2.25,20.18,5.16,28,10
			C348.33,304.33,367.42,291.42,383,275z M393,312c-1.99-5.01-5.02-8.98-10-11c-5.8,10.53-18.02,14.65-20,29
			C379.34,330.35,382.52,317.52,393,312z M362,403c8.43-56.92-66.72-83.27-98-44c2.82,4.51,3.6,11.07,6,16
			c15.39-6.94,26.23-18.43,51-16c2.19,1.81,4.64,3.36,4,8c7.07-1.93,10.46-7.54,19-8C342.66,381.01,352.64,391.7,362,403z M361,407
			c-0.22-0.78-0.84-1.16-2-1c-16.11,6.22-27.54,17.12-49,18c-3.05-2.95-4.68-7.32-4-14c-7.38,3.62-14.17,7.83-18,15
			c3.89,8.45,6.55,18.12,10,27C335.39,453.39,353.52,435.52,361,407z M363,473c-5.63-4.7-8.64-12.03-16-15
			c-7.49,6.51-17.98,10.02-30,12C319.51,497.98,353.86,489.88,363,473z M295,470c-14.46-1.2-23.31-8.03-34-13
			c-3.31,6.35-8.99,10.35-13,16C261,489.26,290.7,498.74,295,470z M286,448c-8.72-27.62-18.8-53.87-29-80
			C239.75,399.27,257.23,441.16,286,448z M249,331c-1.58-15.75-12.79-21.88-22-30c-2.14,4.2-6.36,6.3-8,11
			C229.65,317.68,234.18,329.49,249,331z"/>
	</g>
	<g>
		<path fill="none" stroke="#479F81" d="M363,473c-9.14,16.88-43.49,24.98-46-3c12.02-1.98,22.51-5.49,30-12
			C354.36,460.97,357.37,468.3,363,473z"/>
		<path fill="none" stroke="#479F81" d="M295,470c-4.3,28.74-34,19.26-47,3c4.01-5.65,9.69-9.65,13-16
			C271.69,461.97,280.54,468.8,295,470z"/>
		<path fill="none" stroke="#479F81" d="M298,452c-3.45-8.88-6.11-18.55-10-27c3.83-7.17,10.62-11.38,18-15
			c-0.68,6.68,0.95,11.05,4,14c21.46-0.88,32.89-11.78,49-18c1.16-0.16,1.78,0.22,2,1C353.52,435.52,335.39,453.39,298,452z"/>
		<path fill="none" stroke="#479F81" d="M257,368c10.2,26.13,20.28,52.38,29,80C257.23,441.16,239.75,399.27,257,368z"/>
		<path fill="none" stroke="#479F81" d="M362,403c-9.36-11.3-19.34-21.99-18-44c-8.54,0.46-11.93,6.07-19,8c0.64-4.64-1.81-6.19-4-8
			c-24.77-2.43-35.61,9.06-51,16c-2.4-4.93-3.18-11.49-6-16C295.28,319.73,370.43,346.08,362,403z"/>
		<path fill="none" stroke="#479F81" d="M393,312c-10.48,5.52-13.66,18.35-30,18c1.98-14.35,14.2-18.47,20-29
			C387.98,303.02,391.01,306.99,393,312z"/>
		<path fill="none" stroke="#479F81" d="M249,331c-14.82-1.51-19.35-13.32-30-19c1.64-4.7,5.86-6.8,8-11
			C236.21,309.12,247.42,315.25,249,331z"/>
		<path fill="none" stroke="#BF3287" d="M322,293c2.15,2.85,8.66,1.34,12,3c0,4.33,0,8.67,0,13c-6.41,0.59-12.22,1.78-19,2
			c0,3.33,0,6.67,0,10c10.42,2.25,20.18,5.16,28,10c5.33-26.67,24.42-39.58,40-56c14.8,10.2,25.63,24.37,36,39
			c-17.04,12.3-26.67,32-53,35c17.84,19.05,21.23,76.9-3,95c2.4,6.6,9.55,8.45,12,15c3.67,0,3.83-3.5,6-5c-1.7-1.97-4.65-2.68-8-3
			c8.58-8.09,18.96-19.7,27-25c0.19,14.86-1.02,28.31-3,41c-3.5,0.17-3.15-3.52-5-5c-3.16,1.18-3.48,5.19-6,7
			c6.46,9.88,15.32,17.35,23,26c-2.7,6.3-8.74,9.26-13,14c-8.11-7.22-14.77-15.9-22-24c-14.85,22.15-53.27,20.73-69,42
			c-4.74-16.35-25.73-14.84-42-23c-10.91-5.47-16.43-12.85-25-19c-7.01,7.32-14.15,14.51-20,23c-5.31-3.36-9.59-7.74-14-12
			c6.21-9.79,14.37-17.63,22-26c-0.23-3.77-3.77-4.23-4-8c-3.36,0.31-3.99,3.34-5,6c-4.76-10.58-4.92-25.74-5-41
			c4.85-0.83,12.16,10.88,18,16c3.29,2.89,8.08,3.84,9,8c-3.98-0.65-4.02,2.65-8,2c0.31,2.36,3.47,1.86,3,5
			c6.66-2.34,8.65-9.35,14-13c-20.33-20.03-23.05-74.67-1-95c-25.26-4.07-35.74-22.93-53-35c9.18-16.15,20.94-29.72,36-40
			c13.73,17.27,35,27,38,55c7.76-0.35,16.34-8.25,28-8c1.77-1.89,0.73-6.6,1-10c-5.43-1.9-12.69-1.97-19-3c0-4.33,0-8.67,0-13
			c3.3-1.37,8-1.34,12-2C271.14,260.38,339.12,253.74,322,293z"/>
		<path fill="none" stroke="#BE2C7D" d="M157,246c99.67,0,199.33,0,299,0c0,100,0,200,0,300c-100,0-200,0-300,0c0-99,0-198,0-297
			C155.91,247.58,155.83,246.17,157,246z"/>
	</g>
</g>
<ellipse fill="#FEFEFE" stroke="#FFFFFF" cx="306.5" cy="281.833" rx="10" ry="9.167"/>
<line fill="none" x1="270" y1="374.883" x2="288" y2="424.884"/>
<line fill="#D07EAD" stroke="#FFFFFF" x1="254.989" y1="448" x2="211.302" y2="503.565"/>
<line fill="#D07EAD" stroke="#FFFFFF" x1="355.771" y1="450.184" x2="400.229" y2="502.083"/>
<path fill="none" stroke="#FFFFFF" d="M243.667,478.334c0,0,23,22,39.333,22.333c-0.333,0.667,30.327,0,30.327,0l19.34-1.667
	c0,0,26.666-2.666,36.333-18.666"/>
<path fill="#8FAB77" stroke="#F4F7FB" d="M230.5,463c0,0-15.5-26.5-14-27.75"/>
<path fill="#8FAB77" stroke="#F4F7FB" d="M381.25,463c0,0,15.063-25.421,15.25-30"/>
</svg>
